<svg width="250" height="160" viewBox="0 0 250 160" fill="none" xmlns="http://www.w3.org/2000/svg">
  <rect x="30" y="65" width="190" height="30" rx="6" fill="var(--c_neutral_100, #f8f9fa)" stroke="var(--c_neutral_400, #adb5bd)" stroke-width="1"/>
  <!-- Left addon -->
  <rect x="30" y="65" width="44" height="30" rx="6" fill="var(--c_neutral_200, #e9ecef)"/>
  <rect x="30" y="65" width="44" height="30" rx="0" fill="var(--c_neutral_200, #e9ecef)"/>
  <rect x="30" y="65" width="44" height="30" rx="6" fill="var(--c_neutral_200, #e9ecef)"/>
  <rect x="30" y="79" width="44" height="16" fill="var(--c_neutral_200, #e9ecef)"/>
  <rect x="73" y="65" width="1" height="30" fill="var(--c_neutral_400, #adb5bd)" fill-opacity="0.5"/>
  <rect x="40" y="76" width="24" height="8" rx="4" fill="var(--c_neutral_900, #212529)" fill-opacity="0.35"/>
  <!-- Input area -->
  <rect x="88" y="76" width="90" height="8" rx="4" fill="var(--c_neutral_400, #adb5bd)" fill-opacity="0.3"/>
  <!-- Right button -->
  <rect x="178" y="65" width="42" height="30" rx="6" fill="var(--c_primary_500, #0d6efd)" fill-opacity="0.7"/>
  <rect x="178" y="65" width="42" height="30" rx="0" fill="var(--c_primary_500, #0d6efd)" fill-opacity="0.7"/>
  <rect x="178" y="65" width="42" height="30" rx="6" fill="var(--c_primary_500, #0d6efd)" fill-opacity="0.7"/>
  <rect x="178" y="79" width="42" height="16" fill="var(--c_primary_500, #0d6efd)" fill-opacity="0.7"/>
  <rect x="178" y="65" width="1" height="30" fill="var(--c_neutral_400, #adb5bd)" fill-opacity="0.3"/>
  <rect x="188" y="76" width="22" height="8" rx="4" fill="var(--c_neutral_100, #f8f9fa)" fill-opacity="0.9"/>
</svg>
